<svg xmlns="http://www.w3.org/2000/svg" width="1200" height="150" viewBox="0 0 1200 150">
  <defs>
    <linearGradient id="skyGradient" x1="0%" y1="0%" x2="100%" y2="100%">
      <stop offset="0%" stop-color="#A5D6A7" stop-opacity="0.05" />
      <stop offset="100%" stop-color="#4CAF50" stop-opacity="0.15" />
    </linearGradient>
  </defs>
  
  <!-- Background -->
  <rect width="1200" height="150" fill="url(#skyGradient)" />
  
  <!-- Moon -->
  <circle cx="950" cy="50" r="40" fill="#FFC107" />
  <circle cx="935" cy="40" r="12" fill="#FFECB3" opacity="0.7" />
  
  <!-- Railway -->
  <path d="M0,120 Q600,80 1200,40" stroke="#388E3C" stroke-width="3" fill="none" />
  <path d="M0,130 Q600,90 1200,50" stroke="#388E3C" stroke-width="3" fill="none" />
  
  <!-- Railway ties -->
  <g stroke="#5D4037" stroke-width="2">
    <line x1="50" y1="117" x2="50" y2="133" />
    <line x1="150" y1="113" x2="150" y2="129" />
    <line x1="250" y1="110" x2="250" y2="126" />
    <line x1="350" y1="106" x2="350" y2="122" />
    <line x1="450" y1="102" x2="450" y2="118" />
    <line x1="550" y1="98" x2="550" y2="114" />
    <line x1="650" y1="94" x2="650" y2="110" />
    <line x1="750" y1="90" x2="750" y2="106" />
    <line x1="850" y1="86" x2="850" y2="102" />
    <line x1="950" y1="82" x2="950" y2="98" />
    <line x1="1050" y1="78" x2="1050" y2="94" />
    <line x1="1150" y1="74" x2="1150" y2="90" />
  </g>
  
  <!-- Train -->
  <g transform="translate(300, 85) scale(0.6)">
    <rect x="0" y="0" width="100" height="50" rx="10" fill="#4CAF50" />
    <rect x="10" y="10" width="20" height="20" rx="5" fill="#FFEB3B" />
    <rect x="40" y="10" width="20" height="20" rx="5" fill="#FFEB3B" />
    <rect x="70" y="10" width="20" height="20" rx="5" fill="#FFEB3B" />
    <rect x="-10" y="40" width="120" height="15" rx="5" fill="#388E3C" />
    <circle cx="20" cy="55" r="10" fill="#212121" />
    <circle cx="80" cy="55" r="10" fill="#212121" />
    <rect x="90" y="-20" width="15" height="30" rx="5" fill="#388E3C" />
    
    <!-- Smoke -->
    <circle cx="100" cy="-30" r="8" fill="#E0E0E0" opacity="0.8">
      <animate attributeName="cy" values="-30;-40;-50" dur="2s" repeatCount="indefinite" />
      <animate attributeName="opacity" values="0.8;0.4;0" dur="2s" repeatCount="indefinite" />
    </circle>
    <circle cx="110" cy="-35" r="6" fill="#E0E0E0" opacity="0.6">
      <animate attributeName="cy" values="-35;-45;-55" dur="2.5s" repeatCount="indefinite" />
      <animate attributeName="opacity" values="0.6;0.3;0" dur="2.5s" repeatCount="indefinite" />
    </circle>
    <circle cx="120" cy="-25" r="7" fill="#E0E0E0" opacity="0.7">
      <animate attributeName="cy" values="-25;-35;-45" dur="1.8s" repeatCount="indefinite" />
      <animate attributeName="opacity" values="0.7;0.3;0" dur="1.8s" repeatCount="indefinite" />
    </circle>
  </g>
  
  <!-- Stars -->
  <g fill="#FFFFFF">
    <circle cx="100" cy="30" r="1" />
    <circle cx="200" cy="20" r="1.5" />
    <circle cx="300" cy="40" r="1" />
    <circle cx="400" cy="25" r="1.5" />
    <circle cx="500" cy="35" r="1" />
    <circle cx="600" cy="20" r="1.5" />
    <circle cx="700" cy="30" r="1" />
    <circle cx="800" cy="25" r="1.5" />
    <circle cx="1000" cy="30" r="1" />
    <circle cx="1100" cy="35" r="1.5" />
  </g>
</svg> 