<svg xmlns="http://www.w3.org/2000/svg" width="50" height="50" viewBox="0 0 50 50">
  <path fill="#4CAF50" d="M25,2C12.3,2,2,12.3,2,25s10.3,23,23,23s23-10.3,23-23S37.7,2,25,2z M34.7,33.7L33.3,35c-0.3,0.3-0.7,0.4-1.1,0.4 s-0.8-0.1-1.1-0.4L25,28.8l-6.1,6.1c-0.3,0.3-0.7,0.4-1.1,0.4s-0.8-0.1-1.1-0.4L15.3,33.7c-0.6-0.6-0.6-1.5,0-2.1L21.4,25l-6.1-6.1 c-0.6-0.6-0.6-1.5,0-2.1l1.4-1.4c0.6-0.6,1.5-0.6,2.1,0l6.1,6.1l6.1-6.1c0.6-0.6,1.5-0.6,2.1,0l1.4,1.4c0.6,0.6,0.6,1.5,0,2.1L28.6,25 l6.1,6.1C35.2,31.7,35.2,33.1,34.7,33.7z"/>
  <path fill="#4CAF50" d="M37,16c0-1.1,0.9-2,2-2h4c1.1,0,2,0.9,2,2s-0.9,2-2,2h-4C37.9,18,37,17.1,37,16z"/>
  <path fill="#4CAF50" d="M7,16c0-1.1,0.9-2,2-2h4c1.1,0,2,0.9,2,2s-0.9,2-2,2H9C7.9,18,7,17.1,7,16z"/>
  <path fill="#4CAF50" d="M16,7c1.1,0,2,0.9,2,2v4c0,1.1-0.9,2-2,2s-2-0.9-2-2V9C14,7.9,14.9,7,16,7z"/>
  <path fill="#4CAF50" d="M16,35c1.1,0,2,0.9,2,2v4c0,1.1-0.9,2-2,2s-2-0.9-2-2v-4C14,35.9,14.9,35,16,35z"/>
  <path fill="#4CAF50" d="M34,7c1.1,0,2,0.9,2,2v4c0,1.1-0.9,2-2,2s-2-0.9-2-2V9C32,7.9,32.9,7,34,7z"/>
  <path fill="#4CAF50" d="M34,35c1.1,0,2,0.9,2,2v4c0,1.1-0.9,2-2,2s-2-0.9-2-2v-4C32,35.9,32.9,35,34,35z"/>
</svg> 