<svg xmlns="http://www.w3.org/2000/svg" width="24" height="24" viewBox="0 0 24 24">
  <path fill="#FFFFFF" d="M12 2C6.48 2 2 6.48 2 12s4.48 10 10 10 10-4.48 10-10S17.52 2 12 2zm4.64 6.8c-.15 1.58-.8 5.42-1.13 7.19-.14.75-.42 1-.68 1.03-.58.05-1.02-.38-1.58-.75-.88-.58-1.38-.94-2.23-1.5-.99-.65-.35-1.01.22-1.59.15-.15 2.71-2.48 2.76-2.69.01-.03.01-.14-.05-.2-.06-.06-.16-.04-.23-.02-.1.02-1.62 1.03-4.58 3.03-.43.3-.82.44-1.17.43-.39-.01-1.13-.22-1.67-.4-.68-.23-1.2-.35-1.16-.74.02-.2.3-.4.81-.6 3.17-1.39 5.29-2.3 6.38-2.74 3.02-1.24 3.65-1.46 4.06-1.46.09 0 .29.02.42.12.11.08.14.2.16.28.01.08.02.28 0 .38z"/>
</svg> 