<svg xmlns="http://www.w3.org/2000/svg" width="70" height="70" viewBox="0 0 70 70">
  <rect x="5" y="20" width="60" height="30" rx="5" fill="#FFD700" />
  <rect x="10" y="25" width="15" height="15" rx="2" fill="#FFFFFF" />
  <rect x="30" y="25" width="15" height="15" rx="2" fill="#FFFFFF" />
  <rect x="50" y="25" width="15" height="15" rx="2" fill="#FFFFFF" />
  <rect x="10" y="45" width="50" height="5" rx="2" fill="#F57F17" />
  <circle cx="20" cy="50" r="5" fill="#212121" />
  <circle cx="50" cy="50" r="5" fill="#212121" />
  <text x="35" y="38" font-family="Arial" font-size="10" font-weight="bold" text-anchor="middle" fill="#F57F17">VIP</text>
  
  <!-- Crown on top -->
  <path d="M35,15 L40,10 L45,15 L40,20 L35,15 Z" fill="#F57F17" />
  <path d="M35,15 L30,10 L25,15 L30,20 L35,15 Z" fill="#F57F17" />
  <rect x="25" y="15" width="20" height="5" fill="#F57F17" />
  <circle cx="25" cy="15" r="2" fill="#FFD700" />
  <circle cx="35" cy="15" r="2" fill="#FFD700" />
  <circle cx="45" cy="15" r="2" fill="#FFD700" />
</svg> 