<svg xmlns="http://www.w3.org/2000/svg" viewBox="0 0 500 500">
  <circle cx="250" cy="250" r="200" fill="#8247E5"/>
  <path fill="#FFFFFF" d="M320,170c-8.8,0-16.8,4.4-21.6,11.2l-60,70l-25.6-15.2c-4.8-2.8-10.4-4.4-16-4.4c-8.8,0-16.8,4.4-21.6,11.2l-40,46.8v-11.2c0-13.2-10.8-24-24-24s-24,10.8-24,24v96c0,13.2,10.8,24,24,24s24-10.8,24-24v-11.2l40,46.8c4.8,6.8,12.8,11.2,21.6,11.2c5.6,0,11.2-1.6,16-4.4l25.6-15.2l60,70c4.8,6.8,12.8,11.2,21.6,11.2c13.2,0,24-10.8,24-24V194C344,180.8,333.2,170,320,170z"/>
</svg> 