<svg xmlns="http://www.w3.org/2000/svg" viewBox="0 0 500 500">
  <circle cx="250" cy="250" r="200" fill="#14F195"/>
  <path fill="#FFFFFF" d="M150,180h200c5.5,0,10,4.5,10,10v20c0,5.5-4.5,10-10,10H150c-5.5,0-10-4.5-10-10v-20C140,184.5,144.5,180,150,180z"/>
  <path fill="#FFFFFF" d="M150,280h200c5.5,0,10,4.5,10,10v20c0,5.5-4.5,10-10,10H150c-5.5,0-10-4.5-10-10v-20C140,284.5,144.5,280,150,280z"/>
  <path fill="#FFFFFF" d="M150,230h200c5.5,0,10,4.5,10,10v20c0,5.5-4.5,10-10,10H150c-5.5,0-10-4.5-10-10v-20C140,234.5,144.5,230,150,230z"/>
</svg> 