<svg xmlns="http://www.w3.org/2000/svg" viewBox="0 0 800 450">
  <defs>
    <linearGradient id="bg" x1="0%" y1="0%" x2="100%" y2="100%">
      <stop offset="0%" stop-color="#8247E5"/>
      <stop offset="100%" stop-color="#A569BD"/>
    </linearGradient>
  </defs>
  <rect width="800" height="450" fill="url(#bg)"/>
  <g transform="translate(400,225)">
    <path d="M-200,100 L-150,50 L-100,80 L-50,20 L0,70 L50,30 L100,90 L150,40 L200,60" 
          stroke="#FFFFFF" stroke-width="3" fill="none"/>
    <path d="M-200,100 L-150,50 L-100,80 L-50,20 L0,70 L50,30 L100,90 L150,40 L200,60" 
          stroke="#FFFFFF" stroke-width="1" fill="none" opacity="0.5" stroke-dasharray="5,5"/>
    <circle cx="-200" cy="100" r="5" fill="#FFFFFF"/>
    <circle cx="-150" cy="50" r="5" fill="#FFFFFF"/>
    <circle cx="-100" cy="80" r="5" fill="#FFFFFF"/>
    <circle cx="-50" cy="20" r="5" fill="#FFFFFF"/>
    <circle cx="0" cy="70" r="5" fill="#FFFFFF"/>
    <circle cx="50" cy="30" r="5" fill="#FFFFFF"/>
    <circle cx="100" cy="90" r="5" fill="#FFFFFF"/>
    <circle cx="150" cy="40" r="5" fill="#FFFFFF"/>
    <circle cx="200" cy="60" r="5" fill="#FFFFFF"/>
  </g>
</svg> 